/* XPM */
static char *result[] = {
/* columns rows colors chars-per-pixel */
"50 50 41 1 ",
"  c #425D7E",
". c #455F80",
"X c #456283",
"o c #496686",
"O c #476388",
"+ c #4A668B",
"@ c #4D6A8C",
"# c #516E8E",
"$ c #52708F",
"% c #4E6C92",
"& c #516E92",
"* c #547194",
"= c #5B7695",
"- c #5D7896",
"; c #56749A",
": c #59769C",
"> c #5C799C",
", c #607D9E",
"< c #5677A0",
"1 c #5779A3",
"2 c #5C7CA2",
"3 c #5E7FA8",
"4 c #617EA2",
"5 c #5F80A9",
"6 c #6481A5",
"7 c #6885A7",
"8 c #6383AB",
"9 c #6985AB",
"0 c #6788AD",
"q c #6988AF",
"w c #6586B0",
"e c #6788B1",
"r c #6C8CB4",
"t c #6E8FB8",
"y c #718FB6",
"u c #6F90B9",
"i c #7090B7",
"p c #7293BB",
"a c #7697C1",
"s c #7798C3",
"d c #7A9BC5",
/* pixels */
"papatsssasssaaaaasaasaa5wwutauttadasaaasaadaaapaau",
"ssaassssaasaaaasaaasaaa55wauaasaaaaaaaaadaaaaaaaaa",
"aaaaasaaaaaaaaaasaaaau15<<5asaaaaaaaaaaaaaaaaaaaaa",
"aapaapaaaaaaaapaaaaae51sw555ttaupaaaauaaaaaaaaaaaa",
"etrttttttttppapuuutw55upe55<5eutttptttuuuttuuuttrt",
"ereeerttwwrtpuputtw51wsrww511wetttttetuuuewruuwwer",
"uattrtuuttrtttuptr555dweww5w<<wapaattuppauruaputau",
"uaapuuappappppppu5;wdw555www5115ppppppapupauppuapa",
"pppppppppppppppt5;up0050w5w5w5115tupppppppppppppup",
"pppippipiippppt5%tur55555w5w5551<5uupappipipiipppu",
"piiiippuiiipue5:ete555555w5w5w555;5uupupippiiiiiip",
"iiiiiiiriiipr515s5550555555555555<15ttptiiiiiiiiuu",
"iiiiiyyyiiuu5*5d555555555555w55w55$;0iiiiiiiiiiiii",
"iiyiyyyyiit:<5p55555565555555555555;;5iriiyyiiriii",
"rryryryyyq5*0u555555556656555555;55<;;6ryyyyiiirrr",
"900q0eee06$8e55>655555;5;5;5;;5:5;;<<;*60r07808808",
"888050052*3i42<:5;;55;5;5;*5*5*52:<<<:;;2w88757568",
"0qq80re5;2p5332<$5;;$5$5555;5;5;<<241:;*%w90err09e",
"qrrrrr:%2p633424$5555565;555555543343432%%5riqerer",
"qqrqr:*5r54132226555$55*55$655*5222222221%;5qqerqr",
"qqqq:&50822222225$55*5555555$5$5222221245:;;1er0qq",
"rq75%30822>22222555;$5;5;$5$55$54<222411151%*50req",
"e85@:r622222222255;555*655555;55<4222242>52;*%5eq9",
"01%;p5>1<:2>:2:2$55**55*5$*5;55$4<<4<2:2>1:>;%%5q2",
"%%:y:;<;;;<;;:22;;;;;;;;$*;;:;::;;;<;:2:;;;;;<%&*%",
"%%;e;*;;;;;;***:;:>;;;*;;;;;;;;;;*;*;*;*;::;**%&%@",
"2;%;;;:;:;;;:;;;;<:<;1;;5:;;;;:;:::;<;;:::2:;&%43;",
"q2;%::<;::1:<:<:<>><>>>>;:5;>>>:<:::::::;4<<&%:yq4",
"344;%;:<1>>>>>::>>:<;;5;;6::>:1>:::,:::::::&&;y999",
"yy33%%*:><:::::::::>=6==;;::;>>;::::::::::%%=y9776",
"44434%@&::>;;:;:::::;;$5;;;:::;;:::::::::&%:r76768",
"y44444&%&;;;=;=;;;=;;;=;=;=;;;:;;=:*;:::%%43986666",
"444y444&+&:;&&:::*::*;:*::*:::::=:;;:=*&+:44444464",
"44444444%%;&::&*;*&:;*:*&::&***;*;;***&+:3444y4464",
"44444444:++&:&&&&%&&&&&;&&&&&******&*&@&y444444444",
"*:-,:>4>::+++%&*&&&@@&&&&%&#%&&&&%%&&+*94,4:>444;=",
"44:4>::>444++%&&&&&&&%*@@&&**&%%&&&++=94->4>>:-4,>",
"444444>4444*++%:;*::*%**&&***&&&&*%+*4444444>>44,6",
"444444444444&+O&&*******&*;*****&&+&444444444444>,",
"44,,,,,,-4444=+O#****&**&*******%.%444444>>44>4>6,",
",,,,,,,,44,4>,=.o$*$$&*$&**#*$$@X#7,,,,,4,>,,,,,6>",
",,>,,,>,4-,,,,4=XX#$*$%$*#**$$@o#7,,-,-,4>,,,,,>-6",
">,>,>>>,-4:>>4>4$ X@%$%$#####+ $,4>,,>,,>,>,-,-,,-",
"----,>>--->4--:-6$oo#$$$####@.#-6>->-,=,->-,,,>---",
">-==>==*=*=:*=---6oX $##@@#o #,,----,=,==,==-->-=-",
"$$#@**###&**&&**$==o   oooX  ,,=$==@$$$,&=#,*=:-=#",
"*==*:--=***=-*==$==-=  $#o o,--=$=;====$**&&#@&&$-",
"=>-=--=======-=-;-;-=$    @,,,--=-=;==,,*,==-=*==-",
"===-=--====-----$-----#   ,,------====-==--==----$",
"===========--$-----$-$-  #,--,--============-$----"
};
